<svg width="31" height="31" viewBox="0 0 31 31" fill="none" xmlns="http://www.w3.org/2000/svg">
<g id="local_atm">
<mask id="mask0_4946_6372" style="mask-type:alpha" maskUnits="userSpaceOnUse" x="0" y="0" width="31" height="31">
<rect id="Bounding box" x="0.666687" y="0.928436" width="30" height="30" fill="#D9D9D9"/>
</mask>
<g mask="url(#mask0_4946_6372)">
<path id="local_atm_2" d="M14.6875 22.3034H16.7708V20.9493H18.1875C18.5139 20.9493 18.783 20.826 18.9948 20.5795C19.2066 20.3329 19.3125 20.0465 19.3125 19.7201V16.0796C19.3125 15.7358 19.2066 15.4441 18.9948 15.2045C18.783 14.9649 18.5139 14.8451 18.1875 14.8451H14.1042V12.9909H19.3125V10.9076H16.7708V9.55344H14.6875V10.9076H13.25C12.9236 10.9076 12.6372 11.0309 12.3907 11.2774C12.1441 11.5239 12.0208 11.8181 12.0208 12.16V15.7802C12.0208 16.1221 12.1441 16.3989 12.3907 16.6107C12.6372 16.8225 12.9236 16.9284 13.25 16.9284H17.2292V18.8659H12.0208V20.9493H14.6875V22.3034ZM3.16669 25.9284V5.92844H28.1667V25.9284H3.16669ZM5.25 23.8451H26.0834V8.01175H5.25V23.8451Z" fill="#FAFAFA"/>
</g>
</g>
</svg>
